{"title":"Dhoom.3.2013.DVDRip.x264.Hindi.ESubs-ViZNU [P2PDL]","uid":10127376,"size":637051182,"categoryP":"video","categoryS":"movies","magnet":"?xt=urn:btih:9192cff63106cfd4bd320f520598f27618f1e58a&amp;dn=Dhoom.3.2013.DVDRip.x264.Hindi.ESubs-ViZNU+%5BP2PDL%5D&amp;tr=udp%3A%2F%2Ftracker.openbittorrent.com%3A80&amp;tr=udp%3A%2F%2Fopen.demonii.com%3A1337&amp;tr=udp%3A%2F%2Ftracker.coppersurfer.tk%3A6969&amp;tr=udp%3A%2F%2Fexodus.desync.com%3A6969","seeders":2,"leechers":0,"uploader":"ValidusVyto","files":-1,"time":1399791277,"description":"Dhoom.3.2013.DVDRip.x264.Hindi.ESubs-ViZNU\n\n\nGenre: Action | Crime | Thriller  &lt;a href=&quot;\nhttp://www.imdb.com/title/tt1833673/&quot; rel=&quot;nofollow&quot; target=&quot;_NEW&quot;&gt;\nhttp://www.imdb.com/title/tt1833673/&lt;/a&gt;\n\n\nGeneral\nFormat                         : MPEG-4\nFile size                      : 603 MiB\nDuration                       : 2h 51mn\nOverall bit rate               : 492 Kbps\n\nVideo\nFormat                         : AVC\nBit rate                       : 449 Kbps\nWidth                          : 656 pixels\nHeight                         : 256 pixels\nDisplay aspect ratio           : 2.563\nFrame rate mode                : Constant\nFrame rate                     : 25.000 fps\nBit depth                      : 8 bits\nStream size                    : 550 MiB (91%)\nAudio\nFormat                         : AAC\nBit rate mode                  : Variable\nBit rate                       : 40.0 Kbps\nChannel(s)                     : 2 channels\nChannel positions              : Front: L R\nSampling rate                  : 48.0 KHz\nStream size                    : 48.9 MiB (8%)\nLanguage                       : Hindi\n\nSubtitle                       : Yes (English)\n &lt;a href=&quot;\nhttp://snapgr.am/images/2014/05/10/frame0.png&quot; rel=&quot;nofollow&quot; target=&quot;_NEW&quot;&gt;\nhttp://snapgr.am/images/2014/05/10/frame0.png&lt;/a&gt; &lt;a href=&quot;\nhttp://snapgr.am/images/2014/05/10/frame6.png&quot; rel=&quot;nofollow&quot; target=&quot;_NEW&quot;&gt;\nhttp://snapgr.am/images/2014/05/10/frame6.png&lt;/a&gt; &lt;a href=&quot;\nhttp://snapgr.am/images/2014/05/10/frame10.png&quot; rel=&quot;nofollow&quot; target=&quot;_NEW&quot;&gt;\nhttp://snapgr.am/images/2014/05/10/frame10.png&lt;/a&gt; &lt;a href=&quot;\nhttp://snapgr.am/images/2014/05/10/frame11.png&quot; rel=&quot;nofollow&quot; target=&quot;_NEW&quot;&gt;\nhttp://snapgr.am/images/2014/05/10/frame11.png&lt;/a&gt; &lt;a href=&quot;\nhttp://snapgr.am/images/2014/05/10/frame16.png&quot; rel=&quot;nofollow&quot; target=&quot;_NEW&quot;&gt;\nhttp://snapgr.am/images/2014/05/10/frame16.png&lt;/a&gt; &lt;a href=&quot;\nhttp://snapgr.am/images/2014/05/10/frame18.png&quot; rel=&quot;nofollow&quot; target=&quot;_NEW&quot;&gt;\nhttp://snapgr.am/images/2014/05/10/frame18.png&lt;/a&gt;\n\n----------------------------------------------------------------------------------------------------\n\n\nRecommend to you to use latest version of VLC player. Install K-Lite Codec Pack or shark007 codecs\nin case of any kind of problem in playback (For non-VLC Media Player users). Alternatively, install\nCore AVC codecs, the fastest decoder that there is coupled with Community Center Codec Pack and play\non Windows Media Player Classic. Check sample to be sure.\n\nEncoder Notes:Looking For Early Access To Anything You Can Provide DVDScr, R5, DVDR, BluRay, Direct\nAudio, Music Releases and Seedboxes. We require dedicated servers, so as to do more \nand fast releases of movies.\n\nEncode by ViZNU @ P2PDL Torrent Sharing Community!\t","torrent":{"xt":"urn:btih:9192cff63106cfd4bd320f520598f27618f1e58a","amp;dn":"Dhoom.3.2013.DVDRip.x264.Hindi.ESubs-ViZNU+%5BP2PDL%5D","amp;tr":["udp%3A%2F%2Ftracker.openbittorrent.com%3A80","udp%3A%2F%2Fopen.demonii.com%3A1337","udp%3A%2F%2Ftracker.coppersurfer.tk%3A6969","udp%3A%2F%2Fexodus.desync.com%3A6969"],"infoHash":"9192cff63106cfd4bd320f520598f27618f1e58a","infoHashBuffer":{"type":"Buffer","data":[145,146,207,246,49,6,207,212,189,50,15,82,5,152,242,118,24,241,229,138]},"announce":[],"urlList":[]}}